<svg xmlns="http://www.w3.org/2000/svg" width="900" height="520" viewBox="0 0 900 520">
<rect width="100%" height="100%" fill="white"/>
<text x="70" y="28" font-family="sans-serif" font-size="22" font-weight="700">Full-denoise token accuracy</text>
<line x1="70" y1="455" x2="690" y2="455" stroke="#333"/>
<line x1="70" y1="45" x2="70" y2="455" stroke="#333"/>
<text x="380.0" y="502" text-anchor="middle" font-family="sans-serif" font-size="13">step</text>
<text x="18" y="250.0" transform="rotate(-90 18 250.0)" text-anchor="middle" font-family="sans-serif" font-size="13">token_accuracy</text>
<line x1="70.0" y1="45" x2="70.0" y2="455" stroke="#eee"/>
<text x="70.0" y="475" text-anchor="middle" font-family="sans-serif" font-size="11">50k</text>
<line x1="70" y1="455.0" x2="690" y2="455.0" stroke="#eee"/>
<text x="60" y="459.0" text-anchor="end" font-family="sans-serif" font-size="11">0.65</text>
<line x1="225.0" y1="45" x2="225.0" y2="455" stroke="#eee"/>
<text x="225.0" y="475" text-anchor="middle" font-family="sans-serif" font-size="11">88k</text>
<line x1="70" y1="352.5" x2="690" y2="352.5" stroke="#eee"/>
<text x="60" y="356.5" text-anchor="end" font-family="sans-serif" font-size="11">0.70</text>
<line x1="380.0" y1="45" x2="380.0" y2="455" stroke="#eee"/>
<text x="380.0" y="475" text-anchor="middle" font-family="sans-serif" font-size="11">125k</text>
<line x1="70" y1="250.0" x2="690" y2="250.0" stroke="#eee"/>
<text x="60" y="254.0" text-anchor="end" font-family="sans-serif" font-size="11">0.75</text>
<line x1="535.0" y1="45" x2="535.0" y2="455" stroke="#eee"/>
<text x="535.0" y="475" text-anchor="middle" font-family="sans-serif" font-size="11">162k</text>
<line x1="70" y1="147.5" x2="690" y2="147.5" stroke="#eee"/>
<text x="60" y="151.5" text-anchor="end" font-family="sans-serif" font-size="11">0.80</text>
<line x1="690.0" y1="45" x2="690.0" y2="455" stroke="#eee"/>
<text x="690.0" y="475" text-anchor="middle" font-family="sans-serif" font-size="11">200k</text>
<line x1="70" y1="45.0" x2="690" y2="45.0" stroke="#eee"/>
<text x="60" y="49.0" text-anchor="end" font-family="sans-serif" font-size="11">0.85</text>
<polyline points="70.0,191.9 276.7,138.6 483.3,134.3 690.0,174.0" fill="none" stroke="#1f77b4" stroke-width="2.2"/>
<line x1="718" y1="45" x2="742" y2="45" stroke="#1f77b4" stroke-width="3"/>
<text x="750" y="49" font-family="sans-serif" font-size="12">x0 JEPA</text>
<polyline points="70.0,131.0 276.7,183.9 483.3,67.0 690.0,67.2" fill="none" stroke="#d62728" stroke-width="2.2"/>
<line x1="718" y1="67" x2="742" y2="67" stroke="#d62728" stroke-width="3"/>
<text x="750" y="71" font-family="sans-serif" font-size="12">x0 DLM</text>
<polyline points="70.0,355.1 276.7,316.9" fill="none" stroke="#2ca02c" stroke-width="2.2"/>
<line x1="718" y1="89" x2="742" y2="89" stroke="#2ca02c" stroke-width="3"/>
<text x="750" y="93" font-family="sans-serif" font-size="12">step JEPA T20</text>
<polyline points="70.0,409.9 276.7,355.1" fill="none" stroke="#9467bd" stroke-width="2.2"/>
<line x1="718" y1="111" x2="742" y2="111" stroke="#9467bd" stroke-width="3"/>
<text x="750" y="115" font-family="sans-serif" font-size="12">step JEPA T50</text>
<polyline points="70.0,433.0" fill="none" stroke="#ff7f0e" stroke-width="2.2"/>
<line x1="718" y1="133" x2="742" y2="133" stroke="#ff7f0e" stroke-width="3"/>
<text x="750" y="137" font-family="sans-serif" font-size="12">step JEPA T64</text>
</svg>
