<svg xmlns="http://www.w3.org/2000/svg" width="900" height="520" viewBox="0 0 900 520">
<rect width="100%" height="100%" fill="white"/>
<text x="70" y="28" font-family="sans-serif" font-size="22" font-weight="700">Training loss</text>
<line x1="70" y1="455" x2="690" y2="455" stroke="#333"/>
<line x1="70" y1="45" x2="70" y2="455" stroke="#333"/>
<text x="380.0" y="502" text-anchor="middle" font-family="sans-serif" font-size="13">step</text>
<text x="18" y="250.0" transform="rotate(-90 18 250.0)" text-anchor="middle" font-family="sans-serif" font-size="13">loss</text>
<line x1="70.0" y1="45" x2="70.0" y2="455" stroke="#eee"/>
<text x="70.0" y="475" text-anchor="middle" font-family="sans-serif" font-size="11">0k</text>
<line x1="70" y1="455.0" x2="690" y2="455.0" stroke="#eee"/>
<text x="60" y="459.0" text-anchor="end" font-family="sans-serif" font-size="11">-0.02</text>
<line x1="225.0" y1="45" x2="225.0" y2="455" stroke="#eee"/>
<text x="225.0" y="475" text-anchor="middle" font-family="sans-serif" font-size="11">50k</text>
<line x1="70" y1="352.5" x2="690" y2="352.5" stroke="#eee"/>
<text x="60" y="356.5" text-anchor="end" font-family="sans-serif" font-size="11">1.94</text>
<line x1="380.0" y1="45" x2="380.0" y2="455" stroke="#eee"/>
<text x="380.0" y="475" text-anchor="middle" font-family="sans-serif" font-size="11">100k</text>
<line x1="70" y1="250.0" x2="690" y2="250.0" stroke="#eee"/>
<text x="60" y="254.0" text-anchor="end" font-family="sans-serif" font-size="11">3.90</text>
<line x1="535.0" y1="45" x2="535.0" y2="455" stroke="#eee"/>
<text x="535.0" y="475" text-anchor="middle" font-family="sans-serif" font-size="11">150k</text>
<line x1="70" y1="147.5" x2="690" y2="147.5" stroke="#eee"/>
<text x="60" y="151.5" text-anchor="end" font-family="sans-serif" font-size="11">5.86</text>
<line x1="690.0" y1="45" x2="690.0" y2="455" stroke="#eee"/>
<text x="690.0" y="475" text-anchor="middle" font-family="sans-serif" font-size="11">200k</text>
<line x1="70" y1="45.0" x2="690" y2="45.0" stroke="#eee"/>
<text x="60" y="49.0" text-anchor="end" font-family="sans-serif" font-size="11">7.82</text>
<polyline points="70.0,316.4 71.6,394.5 73.1,409.3 74.7,416.0 76.2,418.9 77.8,420.7 79.3,421.9 80.9,422.7 82.4,423.3 84.0,423.9 85.5,424.3 87.1,424.8 88.6,425.2 90.2,425.5 91.8,425.7 93.3,426.0 94.9,426.2 96.4,426.4 98.0,426.7 99.5,426.9 101.1,427.2 102.6,427.4 104.2,427.5 105.7,427.8 107.3,427.9 108.8,428.1 110.4,428.2 112.0,428.2 113.5,428.5 115.1,428.6 116.6,428.6 118.2,428.7 119.7,428.9 121.3,429.0 122.8,429.1 124.4,429.2 125.9,429.2 127.5,429.4 129.0,429.5 130.6,429.5 132.2,429.6 133.7,429.6 135.3,429.7 136.8,429.8 138.4,429.9 139.9,429.9 141.5,429.9 143.0,430.0 144.6,430.0 146.1,430.1 147.7,430.2 149.2,430.1 150.8,430.3 152.4,430.2 153.9,430.3 155.5,430.4 157.0,430.4 158.6,430.4 160.1,430.4 161.7,430.4 163.2,430.5 164.8,430.5 166.3,430.6 167.9,430.7 169.4,430.6 171.0,430.6 172.6,430.7 174.1,430.7 175.7,430.9 177.2,430.8 178.8,430.8 180.3,430.8 181.9,430.9 183.4,430.8 185.0,430.8 186.5,430.9 188.1,431.0 189.6,431.1 191.2,431.0 192.8,430.9 194.3,431.0 195.9,431.1 197.4,431.1 199.0,431.2 200.5,431.1 202.1,431.2 203.6,431.1 205.2,431.1 206.7,431.1 208.3,431.2 209.8,431.2 211.4,431.2 213.0,431.3 214.5,431.2 216.1,431.3 217.6,431.3 219.2,431.3 220.7,431.3 222.3,431.3 223.8,431.4 225.4,431.4 226.9,431.3 228.5,431.3 230.1,431.4 231.6,431.4 233.2,431.4 234.7,431.4 236.3,431.4 237.8,431.5 239.4,431.5 240.9,431.4 242.5,431.5 244.0,431.5 245.6,431.5 247.1,431.6 248.7,431.5 250.3,431.5 251.8,431.5 253.4,431.6 254.9,431.6 256.5,431.5 258.0,431.6 259.6,431.6 261.1,431.6 262.7,431.7 264.2,431.7 265.8,431.7 267.3,431.7 268.9,431.7 270.5,431.7 272.0,431.7 273.6,431.8 275.1,431.8 276.7,431.7 278.2,431.7 279.8,431.7 281.3,431.7 282.9,431.8 284.4,431.8 286.0,431.8 287.5,431.8 289.1,431.8 290.7,431.9 292.2,431.8 293.8,431.9 295.3,431.8 296.9,431.8 298.4,431.9 300.0,431.8 301.5,431.9 303.1,431.9 304.6,431.9 306.2,432.0 307.7,432.0 309.3,431.9 310.9,431.8 312.4,431.9 314.0,432.0 315.5,431.9 317.1,432.0 318.6,431.9 320.2,431.9 321.7,432.0 323.3,431.9 324.8,432.0 326.4,432.0 327.9,431.9 329.5,432.0 331.1,432.0 332.6,432.1 334.2,432.0 335.7,432.1 337.3,432.1 338.8,432.1 340.4,432.1 341.9,432.1 343.5,432.2 345.0,432.1 346.6,432.2 348.1,432.1 349.7,432.1 351.3,432.2 352.8,432.2 354.4,432.1 355.9,432.1 357.5,432.0 359.0,432.2 360.6,432.1 362.1,432.2 363.7,432.1 365.2,432.2 366.8,432.2 368.3,432.2 369.9,432.2 371.5,432.2 373.0,432.2 374.6,432.2 376.1,432.1 377.7,432.2 379.2,432.3 380.8,432.2 382.3,432.3 383.9,432.3 385.4,432.3 387.0,432.3 388.5,432.3 390.1,432.3 391.7,432.2 393.2,432.3 394.8,432.3 396.3,432.3 397.9,432.3 399.4,432.3 401.0,432.4 402.5,432.4 404.1,432.3 405.6,432.4 407.2,432.3 408.7,432.3 410.3,432.4 411.9,432.4 413.4,432.4 415.0,432.4 416.5,432.4 418.1,432.4 419.6,432.4 421.2,432.4 422.7,432.4 424.3,432.4 425.8,432.4 427.4,432.4 428.9,432.5 430.5,432.4 432.1,432.4 433.6,432.4 435.2,432.5 436.7,432.4 438.3,432.4 439.8,432.5 441.4,432.5 442.9,432.5 444.5,432.5 446.0,432.5 447.6,432.5 449.1,432.4 450.7,432.5 452.3,432.5 453.8,432.4 455.4,432.4 456.9,432.6 458.5,432.5 460.0,432.5 461.6,432.5 463.1,432.5 464.7,432.5 466.2,432.5 467.8,432.5 469.3,432.4 470.9,432.6 472.5,432.5 474.0,432.5 475.6,432.6 477.1,432.5 478.7,432.6 480.2,432.5 481.8,432.5 483.3,432.5 484.9,432.5 486.4,432.6 488.0,432.5 489.5,432.5 491.1,432.5 492.7,432.5 494.2,432.6 495.8,432.6 497.3,432.6 498.9,432.5 500.4,432.7 502.0,432.6 503.5,432.6 505.1,432.7 506.6,432.6 508.2,432.6 509.7,432.6 511.3,432.7 512.9,432.7 514.4,432.6 516.0,432.6 517.5,432.6 519.1,432.6 520.6,432.7 522.2,432.6 523.7,432.7 525.3,432.6 526.8,432.7 528.4,432.6 529.9,432.7 531.5,432.7 533.1,432.7 534.6,432.7 536.2,432.6 537.7,432.7 539.3,432.7 540.8,432.7 542.4,432.6 543.9,432.7 545.5,432.7 547.0,432.7 548.6,432.8 550.2,432.7 551.7,432.8 553.3,432.7 554.8,432.8 556.4,432.7 557.9,432.7 559.5,432.7 561.0,432.8 562.6,432.8 564.1,432.8 565.7,432.7 567.2,432.7 568.8,432.8 570.4,432.8 571.9,432.8 573.5,432.7 575.0,432.8 576.6,432.8 578.1,432.7 579.7,432.7 581.2,432.8 582.8,432.8 584.3,432.8 585.9,432.8 587.4,432.7 589.0,432.8 590.6,432.8 592.1,432.8 593.7,432.8 595.2,432.8 596.8,432.8 598.3,432.9 599.9,432.8 601.4,432.8 603.0,432.8 604.5,432.8 606.1,432.8 607.6,432.8 609.2,432.8 610.8,432.8 612.3,432.8 613.9,432.8 615.4,432.9 617.0,432.9 618.5,432.9 620.1,432.9 621.6,432.9 623.2,432.8 624.7,432.8 626.3,432.9 627.8,432.9 629.4,432.8 631.0,432.9 632.5,432.8 634.1,432.9 635.6,433.0 637.2,432.9 638.7,433.0 640.3,432.9 641.8,432.9 643.4,432.9 644.9,432.8 646.5,433.0 648.0,433.0 649.6,432.8 651.2,432.9 652.7,432.9 654.3,432.9 655.8,432.9 657.4,432.9 658.9,433.0 660.5,433.0 662.0,432.9 663.6,433.0 665.1,432.9 666.7,433.0 668.2,432.9 669.8,432.9 671.4,433.0 672.9,432.9 674.5,433.0 676.0,432.9 677.6,432.9 679.1,433.0 680.7,433.0 682.2,432.9 683.8,432.9 685.3,432.9 686.9,433.0 688.4,432.9 690.0,433.0" fill="none" stroke="#1f77b4" stroke-width="2.2"/>
<line x1="718" y1="45" x2="742" y2="45" stroke="#1f77b4" stroke-width="3"/>
<text x="750" y="49" font-family="sans-serif" font-size="12">causal</text>
<polyline points="70.0,137.0 71.6,229.2 73.1,251.9 74.7,266.2 76.2,279.1 77.8,288.4 79.3,292.4 80.9,298.0 82.4,300.5 84.0,303.4 85.5,305.9 87.1,308.8 88.6,310.5 90.2,313.7 91.8,315.2 93.3,317.6 94.9,320.0 96.4,321.6 98.0,322.9 99.5,326.1 101.1,327.8 102.6,330.0 104.2,331.4 105.7,334.6 107.3,335.6 108.8,338.5 110.4,339.6 112.0,341.7 113.5,342.4 115.1,343.7 116.6,345.7 118.2,348.1 119.7,351.6 121.3,351.9 122.8,354.4 124.4,356.4 125.9,357.4 127.5,358.6 129.0,359.5 130.6,360.6 132.2,362.8 133.7,362.6 135.3,362.9 136.8,362.8 138.4,365.1 139.9,365.1 141.5,365.7 143.0,365.5 144.6,366.0 146.1,366.8 147.7,367.4 149.2,366.8 150.8,368.6 152.4,368.7 153.9,368.7 155.5,368.6 157.0,369.9 158.6,370.2 160.1,369.7 161.7,368.6 163.2,370.8 164.8,370.5 166.3,371.5 167.9,370.4 169.4,371.9 171.0,373.1 172.6,372.3 174.1,374.0 175.7,373.3 177.2,372.7 178.8,373.8 180.3,374.2 181.9,372.4 183.4,374.7 185.0,374.5 186.5,374.3 188.1,374.6 189.6,375.8 191.2,376.3 192.8,376.6 194.3,376.3 195.9,374.8 197.4,376.1 199.0,377.0 200.5,376.2 202.1,375.4 203.6,376.8 205.2,376.7 206.7,378.3 208.3,377.0 209.8,377.3 211.4,377.8 213.0,378.0 214.5,378.2 216.1,378.5 217.6,377.9 219.2,379.3 220.7,377.9 222.3,378.2 223.8,379.8 225.4,377.8 226.9,378.3 228.5,379.0 230.1,379.8 231.6,379.5 233.2,379.3 234.7,379.1 236.3,379.3 237.8,380.3 239.4,381.2 240.9,380.8 242.5,379.4 244.0,380.0 245.6,381.4 247.1,381.5 248.7,380.4 250.3,380.2 251.8,381.8 253.4,380.8 254.9,381.5 256.5,381.1 258.0,381.1 259.6,381.5 261.1,380.7 262.7,381.6 264.2,380.9 265.8,382.5 267.3,381.6 268.9,382.4 270.5,382.0 272.0,383.1 273.6,382.7 275.1,382.4 276.7,382.6 278.2,382.5 279.8,383.2 281.3,384.2 282.9,384.1 284.4,383.0 286.0,384.0 287.5,384.3 289.1,383.0 290.7,382.4 292.2,382.8 293.8,383.8 295.3,384.9 296.9,383.6 298.4,385.6 300.0,385.0 301.5,385.6 303.1,384.1 304.6,384.1 306.2,385.1 307.7,383.3 309.3,384.7 310.9,385.3 312.4,384.0 314.0,385.0 315.5,384.6 317.1,384.9 318.6,384.5 320.2,386.0 321.7,384.6 323.3,385.3 324.8,387.0 326.4,385.6 327.9,386.5 329.5,385.5 331.1,383.7 332.6,385.5 334.2,385.9 335.7,385.6 337.3,386.2 338.8,386.8 340.4,385.9 341.9,386.6 343.5,386.3 345.0,385.8 346.6,386.4 348.1,386.2 349.7,386.2 351.3,387.6 352.8,386.4 354.4,386.4 355.9,386.6 357.5,387.6 359.0,387.0 360.6,387.9 362.1,387.5 363.7,387.2 365.2,387.8 366.8,386.8 368.3,386.0 369.9,387.4 371.5,387.7 373.0,387.7 374.6,387.7 376.1,387.6 377.7,387.7 379.2,386.9 380.8,387.5 382.3,387.7 383.9,388.5 385.4,387.5 387.0,387.2 388.5,387.6 390.1,388.8 391.7,387.3 393.2,387.4 394.8,387.3 396.3,388.8 397.9,388.4 399.4,386.8 401.0,388.8 402.5,388.5 404.1,388.1 405.6,389.1 407.2,388.6 408.7,387.3 410.3,389.0 411.9,388.8 413.4,388.0 415.0,388.8 416.5,387.6 418.1,389.5 419.6,388.2 421.2,388.8 422.7,389.6 424.3,388.1 425.8,389.0 427.4,389.5 428.9,389.0 430.5,389.2 432.1,388.9 433.6,389.9 435.2,388.9 436.7,390.1 438.3,388.9 439.8,390.0 441.4,388.9 442.9,389.5 444.5,390.1 446.0,388.8 447.6,389.7 449.1,389.9 450.7,388.8 452.3,390.5 453.8,391.1 455.4,390.3 456.9,390.5 458.5,391.2 460.0,390.0 461.6,389.7 463.1,391.0 464.7,389.9 466.2,389.8 467.8,390.3 469.3,390.6 470.9,389.3 472.5,390.3 474.0,389.9 475.6,389.6 477.1,390.7 478.7,390.2 480.2,391.2 481.8,390.2 483.3,389.9 484.9,391.3 486.4,391.8 488.0,390.5 489.5,392.0 491.1,390.9 492.7,390.6 494.2,390.2 495.8,390.1 497.3,392.1 498.9,390.6 500.4,391.1 502.0,392.5 503.5,391.5 505.1,392.1 506.6,391.5 508.2,392.1 509.7,390.6 511.3,391.3 512.9,392.0 514.4,391.8 516.0,390.9 517.5,392.3 519.1,391.7 520.6,391.4 522.2,391.5 523.7,391.4 525.3,391.9 526.8,391.2 528.4,391.6 529.9,390.7 531.5,391.1 533.1,392.0 534.6,392.8 536.2,392.2 537.7,391.4 539.3,393.1 540.8,392.1 542.4,392.4 543.9,391.7 545.5,391.9 547.0,393.5 548.6,393.0 550.2,392.2 551.7,392.9 553.3,392.4 554.8,391.3 556.4,392.9 557.9,392.9 559.5,393.0 561.0,391.7 562.6,392.0 564.1,392.4 565.7,394.0 567.2,392.3 568.8,393.2 570.4,392.2 571.9,393.0 573.5,393.0 575.0,391.6 576.6,393.2 578.1,393.5 579.7,392.6 581.2,392.4 582.8,392.6 584.3,392.4 585.9,393.3 587.4,393.0 589.0,393.8 590.6,393.1 592.1,392.3 593.7,393.2 595.2,391.9 596.8,393.3 598.3,393.0 599.9,393.2 601.4,393.4 603.0,393.4 604.5,392.4 606.1,393.3 607.6,392.6 609.2,392.9 610.8,393.7 612.3,393.0 613.9,392.6 615.4,393.3 617.0,394.7 618.5,394.0 620.1,394.1 621.6,393.6 623.2,393.6 624.7,394.9 626.3,393.8 627.8,393.1 629.4,393.6 631.0,394.4 632.5,394.4 634.1,394.6 635.6,393.7 637.2,394.1 638.7,393.3 640.3,394.1 641.8,393.3 643.4,393.7 644.9,394.5 646.5,394.9 648.0,394.5 649.6,393.3 651.2,394.1 652.7,393.9 654.3,394.7 655.8,393.9 657.4,393.3 658.9,394.0 660.5,393.5 662.0,394.3 663.6,394.2 665.1,393.9 666.7,394.6 668.2,395.5 669.8,394.3 671.4,395.3 672.9,394.7 674.5,393.8 676.0,394.5 677.6,395.7 679.1,393.1 680.7,394.5 682.2,395.2 683.8,393.9 685.3,393.9 686.9,395.0 688.4,394.7 690.0,393.6" fill="none" stroke="#d62728" stroke-width="2.2"/>
<line x1="718" y1="67" x2="742" y2="67" stroke="#d62728" stroke-width="3"/>
<text x="750" y="71" font-family="sans-serif" font-size="12">x0 JEPA</text>
<polyline points="70.0,195.2 71.6,250.3 73.1,268.6 74.7,276.4 76.2,283.3 77.8,288.4 79.3,294.4 80.9,298.3 82.4,299.8 84.0,304.2 85.5,309.9 87.1,314.0 88.6,316.1 90.2,318.7 91.8,319.6 93.3,321.2 94.9,323.7 96.4,325.0 98.0,327.4 99.5,329.7 101.1,330.9 102.6,332.4 104.2,333.5 105.7,336.4 107.3,337.8 108.8,340.4 110.4,342.1 112.0,344.2 113.5,345.7 115.1,346.9 116.6,348.7 118.2,350.7 119.7,352.6 121.3,353.3 122.8,356.0 124.4,358.7 125.9,360.8 127.5,363.0 129.0,365.1 130.6,366.1 132.2,368.0 133.7,367.6 135.3,368.1 136.8,367.7 138.4,369.9 139.9,370.2 141.5,371.5 143.0,370.5 144.6,371.0 146.1,372.0 147.7,372.5 149.2,372.4 150.8,373.4 152.4,373.8 153.9,373.7 155.5,373.8 157.0,375.1 158.6,375.1 160.1,374.9 161.7,374.3 163.2,375.9 164.8,375.5 166.3,376.4 167.9,375.4 169.4,376.9 171.0,378.1 172.6,376.8 174.1,378.7 175.7,378.1 177.2,377.3 178.8,378.3 180.3,378.9 181.9,376.8 183.4,379.3 185.0,379.1 186.5,379.1 188.1,379.4 189.6,380.7 191.2,381.1 192.8,381.7 194.3,381.6 195.9,380.6 197.4,381.7 199.0,382.3 200.5,382.0 202.1,381.2 203.6,382.4 205.2,382.7 206.7,384.4 208.3,383.4 209.8,383.5 211.4,384.3 213.0,384.8 214.5,385.2 216.1,385.6 217.6,385.4 219.2,386.9 220.7,385.9 222.3,386.4 223.8,388.0 225.4,386.1 226.9,387.4 228.5,388.1 230.1,388.9 231.6,388.7 233.2,388.5 234.7,388.3 236.3,389.2 237.8,390.3 239.4,391.6 240.9,391.4 242.5,390.1 244.0,390.9 245.6,392.5 247.1,392.9 248.7,391.7 250.3,391.5 251.8,393.0 253.4,392.0 254.9,392.7 256.5,392.5 258.0,392.3 259.6,392.7 261.1,392.0 262.7,392.8 264.2,392.2 265.8,393.9 267.3,392.9 268.9,393.6 270.5,393.7 272.0,394.3 273.6,394.1 275.1,393.7 276.7,393.8 278.2,393.8 279.8,394.6 281.3,395.5 282.9,395.4 284.4,394.3 286.0,395.1 287.5,395.5 289.1,394.3 290.7,393.8 292.2,394.3 293.8,395.2 295.3,396.0 296.9,394.7 298.4,396.6 300.0,396.4 301.5,396.7 303.1,395.5 304.6,395.3 306.2,396.5 307.7,394.7 309.3,395.9 310.9,396.5 312.4,395.3 314.0,396.2 315.5,396.0 317.1,396.2 318.6,396.0 320.2,397.2 321.7,396.1 323.3,396.3 324.8,398.0 326.4,396.8 327.9,397.7 329.5,396.7 331.1,395.1 332.6,396.6 334.2,396.9 335.7,396.7 337.3,397.2 338.8,397.9 340.4,397.1 341.9,397.5 343.5,397.3 345.0,397.0 346.6,397.5 348.1,397.6 349.7,397.3 351.3,398.8 352.8,397.4 354.4,397.4 355.9,397.6 357.5,398.7 359.0,398.2 360.6,399.1 362.1,398.6 363.7,398.5 365.2,398.9 366.8,398.1 368.3,397.2 369.9,398.3 371.5,399.0 373.0,399.2 374.6,398.8 376.1,398.8 377.7,398.7 379.2,398.0 380.8,398.8 382.3,398.8 383.9,399.5 385.4,398.7 387.0,398.2 388.5,398.9 390.1,399.8 391.7,398.5 393.2,398.5 394.8,398.5 396.3,400.2 397.9,399.5 399.4,398.2 401.0,400.0 402.5,399.5 404.1,399.4 405.6,400.0 407.2,399.9 408.7,398.7 410.3,400.0 411.9,400.3 413.4,399.2 415.0,400.2 416.5,399.1 418.1,400.6 419.6,399.6 421.2,400.1 422.7,400.8 424.3,399.7 425.8,400.4 427.4,400.8 428.9,400.3 430.5,400.6 432.1,400.4 433.6,401.1 435.2,400.2 436.7,401.7 438.3,400.4 439.8,401.3 441.4,400.4 442.9,400.6 444.5,401.4 446.0,400.4 447.6,401.1 449.1,401.2 450.7,400.2 452.3,401.7 453.8,402.5 455.4,401.7 456.9,401.7 458.5,402.5 460.0,401.4 461.6,401.0 463.1,402.3 464.7,401.6 466.2,401.4 467.8,401.9 469.3,402.1 470.9,400.8 472.5,401.8 474.0,401.6 475.6,401.1 477.1,402.0 478.7,401.6 480.2,402.4 481.8,401.9 483.3,401.5 484.9,402.7 486.4,403.2 488.0,402.0 489.5,403.4 491.1,402.5 492.7,402.1 494.2,401.9 495.8,401.8 497.3,403.3 498.9,402.3 500.4,402.8 502.0,404.0 503.5,403.0 505.1,403.8 506.6,403.3 508.2,403.9 509.7,402.3 511.3,403.1 512.9,403.7 514.4,403.4 516.0,402.8 517.5,403.9 519.1,403.2 520.6,403.1 522.2,403.3 523.7,403.2 525.3,403.5 526.8,403.0 528.4,403.5 529.9,402.6 531.5,403.0 533.1,404.0 534.6,404.3 536.2,404.0 537.7,403.2 539.3,404.7 540.8,403.7 542.4,404.2 543.9,403.5 545.5,403.4 547.0,405.1 548.6,404.8 550.2,404.0 551.7,404.3 553.3,404.4 554.8,403.1 556.4,404.4 557.9,404.7 559.5,404.8 561.0,403.7 562.6,403.9 564.1,404.4 565.7,405.4 567.2,404.1 568.8,405.1 570.4,404.3 571.9,404.6 573.5,404.9 575.0,403.5 576.6,404.8 578.1,405.2 579.7,404.6 581.2,404.5 582.8,404.6 584.3,404.3 585.9,405.2 587.4,405.0 589.0,405.6 590.6,404.9 592.1,404.1 593.7,405.0 595.2,403.9 596.8,405.3 598.3,404.8 599.9,405.1 601.4,405.3 603.0,405.5 604.5,404.6 606.1,405.4 607.6,404.7 609.2,404.8 610.8,405.5 612.3,405.2 613.9,405.1 615.4,405.2 617.0,406.3 618.5,405.9 620.1,406.2 621.6,405.7 623.2,405.3 624.7,406.6 626.3,405.9 627.8,405.2 629.4,405.5 631.0,406.1 632.5,406.3 634.1,406.3 635.6,405.7 637.2,405.9 638.7,405.5 640.3,405.9 641.8,405.4 643.4,405.8 644.9,406.1 646.5,406.9 648.0,406.6 649.6,405.4 651.2,406.2 652.7,406.1 654.3,406.3 655.8,406.0 657.4,405.3 658.9,406.2 660.5,405.5 662.0,406.3 663.6,406.0 665.1,405.9 666.7,406.4 668.2,407.2 669.8,406.6 671.4,407.0 672.9,406.5 674.5,405.9 676.0,406.3 677.6,407.6 679.1,405.6 680.7,406.9 682.2,406.8 683.8,406.4 685.3,405.9 686.9,407.0 688.4,406.5 690.0,405.6" fill="none" stroke="#2ca02c" stroke-width="2.2"/>
<line x1="718" y1="89" x2="742" y2="89" stroke="#2ca02c" stroke-width="3"/>
<text x="750" y="93" font-family="sans-serif" font-size="12">x0 DLM</text>
<polyline points="70.0,67.0 71.6,171.4 73.1,201.4 74.7,220.0 76.2,232.8 77.8,243.9 79.3,254.7 80.9,263.9 82.4,270.4 84.0,279.6 85.5,287.5 87.1,294.8 88.6,297.9 90.2,303.7 91.8,306.6 93.3,310.2 94.9,314.2 96.4,317.4 98.0,320.5 99.5,324.4 101.1,326.6 102.6,330.5 104.2,333.2 105.7,336.8 107.3,338.2 108.8,342.9 110.4,344.7 112.0,346.4 113.5,351.1 115.1,351.5 116.6,354.4 118.2,357.2 119.7,360.5 121.3,361.9 122.8,364.0 124.4,366.5 125.9,369.5 127.5,370.4 129.0,372.7 130.6,374.3 132.2,375.7 133.7,377.3 135.3,378.0 136.8,378.0 138.4,381.1 139.9,382.0 141.5,383.6 143.0,382.5 144.6,384.5 146.1,385.5 147.7,388.0 149.2,390.1 150.8,392.9 152.4,394.1 153.9,393.9 155.5,393.9 157.0,396.2 158.6,395.8 160.1,396.1 161.7,396.3 163.2,398.6 164.8,397.8 166.3,398.8 167.9,400.7 169.4,400.5 171.0,402.0 172.6,401.6 174.1,402.2 175.7,403.4 177.2,402.8 178.8,404.2 180.3,404.9 181.9,403.6 183.4,405.3 185.0,405.2 186.5,405.6 188.1,405.3 189.6,406.0 191.2,406.8 192.8,406.3 194.3,406.5 195.9,407.7 197.4,407.3 199.0,408.2 200.5,408.3 202.1,408.4 203.6,408.5 205.2,408.9 206.7,410.1 208.3,409.2 209.8,409.4 211.4,410.2 213.0,409.9 214.5,411.5 216.1,410.5 217.6,411.4 219.2,410.8 220.7,410.0 222.3,411.0 223.8,411.2 225.4,411.6 226.9,410.8 228.5,410.8 230.1,413.1 231.6,412.4 233.2,412.7 234.7,413.9 236.3,413.9 237.8,415.3 239.4,415.8 240.9,415.7 242.5,414.9 244.0,415.4 245.6,416.4 247.1,417.2 248.7,415.8 250.3,416.0 251.8,417.3 253.4,417.0 254.9,417.7 256.5,416.8 258.0,418.5 259.6,418.1 261.1,418.3 262.7,417.5 264.2,417.7 265.8,418.5 267.3,419.3 268.9,419.2 270.5,419.3 272.0,418.8 273.6,420.0 275.1,419.6 276.7,419.6 278.2,419.6 279.8,420.2 281.3,420.3 282.9,420.5 284.4,420.2 286.0,420.4 287.5,420.8 289.1,420.2 290.7,420.6 292.2,420.9 293.8,420.0 295.3,421.5 296.9,420.9 298.4,422.4 300.0,421.9 301.5,422.1 303.1,422.1 304.6,422.0 306.2,421.6 307.7,421.2 309.3,422.1 310.9,421.1 312.4,422.0 314.0,422.2 315.5,422.7 317.1,422.6 318.6,422.4 320.2,423.1 321.7,421.3 323.3,422.5 324.8,422.3 326.4,422.6 327.9,423.3 329.5,422.7 331.1,422.3 332.6,423.1 334.2,422.5 335.7,422.9 337.3,423.5 338.8,424.3 340.4,423.5 341.9,423.4 343.5,423.3 345.0,423.6 346.6,423.9 348.1,423.3 349.7,423.6 351.3,424.2 352.8,423.6 354.4,423.6 355.9,423.7 357.5,424.1 359.0,424.3 360.6,424.5 362.1,424.1 363.7,424.1 365.2,425.6 366.8,424.3 368.3,424.8 369.9,424.8 371.5,424.2 373.0,425.0 374.6,424.6 376.1,425.0 377.7,425.1 379.2,424.8 380.8,425.5 382.3,425.3 383.9,424.8 385.4,424.1 387.0,424.6 388.5,425.4 390.1,425.4 391.7,424.9 393.2,425.7 394.8,424.8 396.3,425.3 397.9,424.8 399.4,424.8 401.0,425.8 402.5,425.5 404.1,425.5 405.6,425.6 407.2,425.7 408.7,425.3 410.3,425.9 411.9,426.6 413.4,425.4 415.0,425.6 416.5,425.4 418.1,426.6 419.6,425.7 421.2,425.9 422.7,426.1 424.3,426.1 425.8,426.4 427.4,426.7 428.9,426.0 430.5,426.6 432.1,426.1 433.6,426.7 435.2,426.1 436.7,427.1 438.3,426.6 439.8,426.2 441.4,426.6" fill="none" stroke="#9467bd" stroke-width="2.2"/>
<line x1="718" y1="111" x2="742" y2="111" stroke="#9467bd" stroke-width="3"/>
<text x="750" y="115" font-family="sans-serif" font-size="12">step JEPA T20</text>
<polyline points="70.0,99.2 71.6,179.3 73.1,196.7 74.7,212.6 76.2,220.6 77.8,230.0 79.3,233.8 80.9,241.7 82.4,244.8 84.0,248.9 85.5,257.8 87.1,264.9 88.6,268.5 90.2,277.1 91.8,278.1 93.3,285.3 94.9,289.9 96.4,295.1 98.0,298.2 99.5,304.2 101.1,304.2 102.6,307.9 104.2,311.0 105.7,313.9 107.3,314.8 108.8,318.4 110.4,320.3 112.0,322.7 113.5,326.9 115.1,327.5 116.6,329.4 118.2,332.4 119.7,335.6 121.3,337.1 122.8,340.1 124.4,340.3 125.9,344.6 127.5,344.4 129.0,347.9 130.6,349.7 132.2,351.5 133.7,353.1 135.3,354.6 136.8,355.8 138.4,358.1 139.9,360.4 141.5,362.6 143.0,361.9 144.6,365.2 146.1,366.3 147.7,367.8 149.2,369.0 150.8,371.7 152.4,372.3 153.9,373.7 155.5,375.1 157.0,376.9 158.6,377.1 160.1,378.6 161.7,379.9 163.2,380.7 164.8,381.2 166.3,380.9 167.9,384.7 169.4,384.0 171.0,385.6 172.6,386.7 174.1,386.8 175.7,387.9 177.2,389.3 178.8,388.6 180.3,388.1 181.9,391.1 183.4,391.3 185.0,391.8 186.5,393.3 188.1,392.4 189.6,393.5 191.2,392.8 192.8,394.4 194.3,394.7 195.9,396.5 197.4,394.8 199.0,397.1 200.5,396.9 202.1,397.0 203.6,398.1 205.2,398.3 206.7,399.6 208.3,400.4 209.8,401.4 211.4,400.3 213.0,400.5 214.5,401.6 216.1,401.1 217.6,402.6 219.2,401.6 220.7,402.3 222.3,402.7 223.8,401.4 225.4,402.7 226.9,402.0 228.5,401.7 230.1,404.1 231.6,403.5 233.2,404.3 234.7,403.4 236.3,404.2 237.8,405.0 239.4,405.2 240.9,405.6 242.5,405.1 244.0,405.9 245.6,406.8 247.1,407.1 248.7,406.7 250.3,406.3 251.8,407.6 253.4,407.0 254.9,406.9 256.5,407.6 258.0,407.8 259.6,408.8 261.1,408.2 262.7,406.5 264.2,408.5 265.8,409.6 267.3,409.6 268.9,409.2 270.5,410.4 272.0,410.0 273.6,410.7 275.1,411.6 276.7,412.7 278.2,412.1 279.8,413.3 281.3,414.6 282.9,414.8 284.4,415.0 286.0,415.1 287.5,415.4 289.1,415.4 290.7,415.9 292.2,416.0 293.8,415.9 295.3,417.3 296.9,417.4 298.4,417.7 300.0,416.5 301.5,416.9 303.1,417.0 304.6,417.8 306.2,417.3 307.7,418.2 309.3,417.3 310.9,417.3 312.4,418.3 314.0,418.1 315.5,418.7 317.1,418.5 318.6,418.9 320.2,419.0 321.7,418.4 323.3,418.5 324.8,419.5 326.4,418.9 327.9,420.3 329.5,419.2 331.1,419.3 332.6,420.1 334.2,419.9 335.7,419.7 337.3,419.8 338.8,420.8 340.4,420.6 341.9,419.9 343.5,420.6 345.0,419.7 346.6,420.8 348.1,420.4 349.7,420.6 351.3,420.9 352.8,421.5 354.4,420.3 355.9,421.7 357.5,422.2 359.0,422.6 360.6,422.4 362.1,422.0 363.7,422.2 365.2,422.4 366.8,422.4 368.3,421.9 369.9,422.3 371.5,422.1 373.0,422.8 374.6,422.6 376.1,422.4 377.7,423.0 379.2,422.8 380.8,423.2 382.3,423.5 383.9,422.2 385.4,422.2 387.0,422.4 388.5,422.5 390.1,423.2 391.7,422.7 393.2,422.9 394.8,422.0 396.3,423.6 397.9,424.4 399.4,423.2 401.0,423.6 402.5,424.4 404.1,423.0 405.6,424.2 407.2,423.7 408.7,423.8 410.3,424.6 411.9,424.5 413.4,423.5 415.0,424.2 416.5,423.9 418.1,425.4 419.6,424.1 421.2,424.4 422.7,424.8 424.3,425.2 425.8,424.7 427.4,424.4 428.9,425.0 430.5,425.1 432.1,424.1 433.6,424.7 435.2,425.1 436.7,425.3 438.3,425.9 439.8,426.4 441.4,425.9" fill="none" stroke="#ff7f0e" stroke-width="2.2"/>
<line x1="718" y1="133" x2="742" y2="133" stroke="#ff7f0e" stroke-width="3"/>
<text x="750" y="137" font-family="sans-serif" font-size="12">step JEPA T50</text>
<polyline points="70.0,108.6 71.6,187.7 73.1,206.3 74.7,220.8 76.2,227.0 77.8,236.3 79.3,240.3 80.9,247.1 82.4,251.7 84.0,254.4 85.5,260.0 87.1,262.3 88.6,263.7 90.2,273.4 91.8,275.6 93.3,280.6 94.9,284.4 96.4,290.0 98.0,290.4 99.5,299.0 101.1,297.6 102.6,302.3 104.2,304.7 105.7,308.2 107.3,308.4 108.8,312.3 110.4,314.4 112.0,317.3 113.5,321.5 115.1,322.5 116.6,323.8 118.2,326.7 119.7,328.7 121.3,332.2 122.8,333.5 124.4,332.3 125.9,337.8 127.5,336.6 129.0,340.5 130.6,343.1 132.2,343.8 133.7,344.9 135.3,346.9 136.8,347.7 138.4,349.6 139.9,353.2 141.5,355.3 143.0,353.1 144.6,356.7 146.1,357.8 147.7,359.8 149.2,360.9 150.8,363.1 152.4,364.2 153.9,365.2 155.5,365.2 157.0,368.4 158.6,368.9 160.1,370.6 161.7,371.0 163.2,372.3 164.8,374.7 166.3,372.9 167.9,375.2 169.4,377.2 171.0,377.7 172.6,377.5 174.1,378.6 175.7,379.6 177.2,380.4 178.8,381.4 180.3,380.7 181.9,383.7 183.4,383.4 185.0,384.5 186.5,386.2 188.1,384.4 189.6,386.8 191.2,385.5 192.8,387.1 194.3,388.9 195.9,389.9 197.4,389.2 199.0,389.8 200.5,390.5 202.1,390.9 203.6,391.8 205.2,392.3 206.7,392.7 208.3,393.8 209.8,395.3 211.4,394.4 213.0,394.1 214.5,396.4 216.1,395.4 217.6,396.8 219.2,394.6 220.7,396.9 222.3,397.2 223.8,396.1 225.4,397.9 226.9,396.2 228.5,396.5 230.1,398.6 231.6,398.7 233.2,399.6 234.7,399.3 236.3,400.6 237.8,399.5 239.4,400.7 240.9,399.6 242.5,400.8 244.0,402.3 245.6,401.8 247.1,402.2 248.7,401.4 250.3,402.6 251.8,403.7 253.4,402.5 254.9,403.0" fill="none" stroke="#17becf" stroke-width="2.2"/>
<line x1="718" y1="155" x2="742" y2="155" stroke="#17becf" stroke-width="3"/>
<text x="750" y="159" font-family="sans-serif" font-size="12">step JEPA T64</text>
</svg>
